<svg xmlns="http://www.w3.org/2000/svg" width="107" height="20">
  <defs>
    <linearGradient id="workflow-fill" x1="50%" y1="0%" x2="50%" y2="100%">
      <stop stop-color="#444D56" offset="0%"></stop>
      <stop stop-color="#24292E" offset="100%"></stop>
    </linearGradient>
    <linearGradient id="state-fill" x1="50%" y1="0%" x2="50%" y2="100%">
      <stop stop-color="#34D058" offset="0%"></stop>
      <stop stop-color="#28A745" offset="100%"></stop>
    </linearGradient>
  </defs>
  <g fill="none" fill-rule="evenodd">
    <g font-family="&#39;DejaVu Sans&#39;,Verdana,Geneva,sans-serif" font-size="11">
      <path id="workflow-bg" d="M0,3 C0,1.3431 1.3552,0 3.02702703,0 L80,0 L80,20 L3.02702703,20 C1.3552,20 0,18.6569 0,17 L0,3 Z" fill="url(#workflow-fill)" fill-rule="nonzero"></path>
      <text fill="#010101" fill-opacity=".3">
        <tspan x="22.1981982" y="15">Commits</tspan>
      </text>
      <text fill="#FFFFFF">
        <tspan x="22.1981982" y="14">Commits</tspan>
      </text>
    </g>
    <g transform="translate(80)" font-family="&#39;DejaVu Sans&#39;,Verdana,Geneva,sans-serif" font-size="11">
      <path d="M0,0 L25.34706,0 C26.25966,0 27,1.343 27,3 L27,17 C27,18.657 26.2602,20 25.34706,20 L0,20 L0,0 Z" id="state-bg" fill="url(#state-fill)" fill-rule="nonzero"></path>
      <text fill="#010101" fill-opacity=".3">
        <tspan x="3" y="15" id="commit-shadow">COMMIT_NUMBER</tspan>
      </text>
      <text fill="#FFFFFF">
        <tspan x="3" y="14" id="commit-number">COMMIT_NUMBER</tspan>
      </text>
    </g>
  </g>
</svg>

